<svg id="Capa_1" enable-background="new 0 0 512 512" height="512" viewBox="0 0 512 512" width="512" xmlns="http://www.w3.org/2000/svg"><g><path d="m512 198.276c0-32.599-12.693-63.244-35.742-86.292l-76.242-76.242c-23.048-23.049-53.693-35.742-86.292-35.742h-.004-176.7c-26.12 0-47.37 21.254-47.37 47.38v241.97h-62.58c-14.926 0-27.07 12.144-27.07 27.07v14.5c0 4.142 3.358 7.5 7.5 7.5s7.5-3.358 7.5-7.5v-14.5c0-6.655 5.415-12.07 12.07-12.07h13.944v41.347c0 14.776 12.021 26.798 26.798 26.798h52.531c14.776 0 26.798-12.021 26.798-26.798v-30.74l60.51 60.51v109.463c0 6.655-5.415 12.07-12.07 12.07h-168.511c-6.655 0-12.07-5.415-12.07-12.07v-120.45c0-4.142-3.358-7.5-7.5-7.5s-7.5 3.358-7.5 7.5v120.45c0 14.926 12.144 27.07 27.07 27.07h437.55c26.12 0 47.37-21.254 47.37-47.38zm-122.591-151.928 76.242 76.242c12.184 12.184 21.068 26.788 26.205 42.729-13.07-13.549-31.401-21.987-51.669-21.987h-39.143c-17.853 0-32.377-14.524-32.377-32.377v-39.143c0-20.268-8.438-38.599-21.987-51.669 15.942 5.137 30.545 14.021 42.729 26.205zm-269.066 311.147h-52.531c-6.505 0-11.798-5.292-11.798-11.798v-41.347h76.126v41.347c0 6.505-5.292 11.798-11.797 11.798zm344.277 139.505h-244.82c1.82-3.637 2.85-7.734 2.85-12.07v-112.57c0-1.989-.79-3.897-2.197-5.303l-75.51-75.51c-1.406-1.407-3.314-2.197-5.303-2.197h-34.99v-241.97c0-17.854 14.521-32.38 32.37-32.38h159.836c31.326 0 56.812 25.486 56.812 56.812v39.143c0 26.124 21.253 47.377 47.377 47.377h39.143c31.203 0 56.604 25.289 56.803 56.446v249.842c-.001 17.855-14.522 32.38-32.371 32.38z"/><path d="m429.44 225.5h-25.49c-4.142 0-7.5 3.358-7.5 7.5s3.358 7.5 7.5 7.5h25.49c4.142 0 7.5-3.358 7.5-7.5s-3.358-7.5-7.5-7.5z"/><path d="m164.72 233c0 4.142 3.358 7.5 7.5 7.5h198.17c4.142 0 7.5-3.358 7.5-7.5s-3.358-7.5-7.5-7.5h-198.17c-4.142 0-7.5 3.358-7.5 7.5z"/><path d="m429.436 265.395h-257.217c-4.142 0-7.5 3.358-7.5 7.5s3.358 7.5 7.5 7.5h257.216c4.142 0 7.5-3.358 7.5-7.5s-3.357-7.5-7.499-7.5z"/><path d="m429.436 305.29h-235.934c-4.142 0-7.5 3.358-7.5 7.5s3.358 7.5 7.5 7.5h235.934c4.142 0 7.5-3.358 7.5-7.5s-3.358-7.5-7.5-7.5z"/><path d="m266.71 345.18h-41.284c-4.142 0-7.5 3.358-7.5 7.5s3.358 7.5 7.5 7.5h41.284c4.142 0 7.5-3.358 7.5-7.5s-3.358-7.5-7.5-7.5z"/><path d="m172.219 129.846h94.488c4.142 0 7.5-3.358 7.5-7.5s-3.358-7.5-7.5-7.5h-94.488c-4.142 0-7.5 3.358-7.5 7.5s3.358 7.5 7.5 7.5z"/><path d="m155.004 470.927c14.685 0 26.632-11.947 26.632-26.632v-26.914c0-14.685-11.947-26.632-26.632-26.632h-87.358c-14.685 0-26.632 11.947-26.632 26.632v26.914c0 14.685 11.947 26.632 26.632 26.632zm-98.99-26.633v-26.914c0-6.414 5.218-11.632 11.632-11.632h87.358c6.414 0 11.632 5.218 11.632 11.632v26.914c0 6.414-5.218 11.632-11.632 11.632h-87.358c-6.414.001-11.632-5.218-11.632-11.632z"/></g></svg>