<svg id="Capa_1" enable-background="new 0 0 511.998 511.998" height="512" viewBox="0 0 511.998 511.998" width="512" xmlns="http://www.w3.org/2000/svg"><g><path d="m240.545 322.791c15.956 0 30.687-9.316 37.53-23.734 1.773-3.735.181-8.2-3.553-9.973-3.737-1.773-8.201-.181-9.973 3.553-4.377 9.222-13.798 15.181-24.003 15.181s-19.626-5.959-24.003-15.181c-1.774-3.734-6.238-5.328-9.973-3.553-3.735 1.773-5.326 6.238-3.553 9.973 6.841 14.418 21.572 23.734 37.528 23.734z"/><path d="m184.156 244.565c0-11.2-6.112-20.313-13.625-20.313s-13.625 9.113-13.625 20.313 6.112 20.313 13.625 20.313 13.625-9.112 13.625-20.313z"/><path d="m310.56 264.878c7.512 0 13.625-9.112 13.625-20.313 0-11.2-6.112-20.313-13.625-20.313-7.512 0-13.625 9.113-13.625 20.313 0 11.201 6.112 20.313 13.625 20.313z"/><path d="m511.998 101.456c0-55.682-45.3-100.982-100.982-100.982-25.13 0-48.144 9.231-65.834 24.479-29.204-10.501-64.367-15.835-104.639-15.835-80.703 0-139.791 21.285-175.624 63.264-27.638 32.379-41.652 77.54-41.652 134.229l.001 7.871c.019 82.932.031 132.989-21.077 154.105-2.821 2.822-2.933 7.362-.253 10.319.444.491 11.159 12.139 34.413 22.494.989.441 2.023.649 3.041.649 2.866 0 5.602-1.656 6.843-4.443 1.682-3.777-.017-8.202-3.794-9.884-11.78-5.246-19.829-10.797-24.487-14.51 20.318-26.958 20.305-75.518 20.286-158.734l-.001-7.868c0-53.025 12.808-94.916 38.067-124.508 32.858-38.494 88.115-58.013 164.236-58.013 35.52 0 66.731 4.27 92.984 12.699-14.652 17.531-23.484 40.086-23.484 64.667 0 29.066 12.535 56.733 34.39 75.906 3.108 2.727 7.839 2.417 10.565-.69 2.726-3.108 2.417-7.838-.691-10.564-18.615-16.331-29.292-39.896-29.292-64.652 0-47.426 38.579-86.01 86-86.01 47.426 0 86.01 38.584 86.01 86.01 0 47.421-38.584 86-86.01 86-11.647 0-22.931-2.282-33.539-6.782-3.807-1.616-8.201.162-9.815 3.968-1.615 3.806.162 8.201 3.968 9.815 12.467 5.289 25.719 7.971 39.386 7.971 11.064 0 21.715-1.794 31.685-5.097.088 3.05.136 6.146.136 9.279l-.001 7.865c-.019 83.197-.032 131.753 20.277 158.716-11.668 9.223-44.462 29.784-104.279 29.542-4.824-6.614-9.386-11.737-13.239-15.573 29.809-13.975 50.682-43.42 52.464-78.289 1.587-31.019 1.761-62.386.518-93.23-.162-4.014-3.463-7.184-7.48-7.184-54.2 0-90.279-58.931-90.633-59.519-1.083-1.809-2.879-3.078-4.947-3.493-2.067-.416-4.214.059-5.913 1.31-73.641 54.189-196.391 61.513-199.919 61.709-3.881.154-7.023 3.267-7.179 7.182-1.237 30.971-1.062 62.337.518 93.229 1.791 34.854 22.65 64.288 52.435 78.27-3.899 3.856-8.473 8.972-13.297 15.577-18.808.07-36.5-1.861-52.624-5.818-4.018-.986-8.07 1.47-9.055 5.486s1.47 8.069 5.486 9.055c14.504 3.56 30.129 5.603 46.593 6.13-13.481 23.409-22.913 52.056-28.041 85.324-.333 2.159.294 4.356 1.717 6.014 1.422 1.658 3.498 2.612 5.682 2.612h297.241c2.184 0 4.26-.954 5.682-2.612 1.422-1.659 2.049-3.855 1.717-6.014-5.9-38.282-16.939-65.907-28.105-85.307 76.86-2.392 109.275-37.122 110.69-38.682 2.682-2.957 2.571-7.5-.252-10.323-21.116-21.116-21.104-71.174-21.085-154.107l.001-7.868c0-5.278-.12-10.475-.357-15.511 32.38-16.837 54.548-50.699 54.548-89.644zm-414.022 206.651c-1.444-28.212-1.697-56.828-.755-85.164 11.599-.943 36.787-3.537 67.428-9.98 52.406-11.018 95.222-27.695 127.421-49.615 11.468 16.215 44.253 56.05 91.8 59.798.938 28.162.681 56.707-.764 84.962-2.023 39.577-33.425 70.832-73.046 72.702-46.124 2.18-92.903 2.18-139.039 0-39.609-1.871-71.011-33.127-73.045-72.703zm208.687 87.827c-4.251 22.743-32.272 40.37-66.123 40.37s-61.872-17.628-66.122-40.37c21.954.975 44.039 1.481 66.127 1.481 22.089.001 44.17-.506 66.118-1.481zm-205.893 100.618c12.191-66.806 40.245-95.199 50.62-103.666 2.533.656 5.109 1.206 7.725 1.649 1.458 15.082 10.036 28.986 24.569 39.537 15.281 11.095 35.472 17.204 56.856 17.204s41.575-6.11 56.856-17.204c14.534-10.552 23.112-24.454 24.57-39.537 2.62-.443 5.2-.994 7.737-1.651 10.37 8.463 38.416 36.85 50.609 103.668z"/><path d="m411.021 46.832c-4.134 0-7.486 3.352-7.486 7.486v39.647h-39.647c-4.134 0-7.486 3.352-7.486 7.486s3.352 7.486 7.486 7.486h39.647v39.647c0 4.134 3.352 7.486 7.486 7.486s7.486-3.352 7.486-7.486v-39.647h39.647c4.134 0 7.486-3.352 7.486-7.486s-3.352-7.486-7.486-7.486h-39.647v-39.646c0-4.135-3.352-7.487-7.486-7.487z"/></g></svg>