<svg id="Capa_1" enable-background="new 0 0 511.989 511.989" height="512" viewBox="0 0 511.989 511.989" width="512" xmlns="http://www.w3.org/2000/svg"><g><path d="m192.903 289.229c-15.866 0-30.514 9.264-37.318 23.601-1.776 3.742-.182 8.215 3.561 9.991 3.743 1.775 8.216.182 9.991-3.561 4.333-9.131 13.662-15.031 23.766-15.031s19.433 5.9 23.766 15.032c1.284 2.704 3.975 4.286 6.781 4.286 1.077 0 2.172-.233 3.21-.726 3.742-1.776 5.336-6.25 3.56-9.992-6.803-14.336-21.451-23.6-37.317-23.6z"/><path d="m123.4 218.417c-7.459 0-13.528 9.047-13.528 20.167s6.069 20.167 13.528 20.167 13.528-9.047 13.528-20.167c0-11.121-6.069-20.167-13.528-20.167z"/><path d="m262.408 218.417c-7.459 0-13.528 9.047-13.528 20.167s6.068 20.167 13.528 20.167c7.459 0 13.527-9.047 13.527-20.167 0-11.121-6.068-20.167-13.527-20.167z"/><path d="m408.218 0c-33.163 0-62.65 16.042-81.111 40.772-16.448-.084-31.288 8.146-39.412 13.702-12.724-14.955-52.074-48.096-147.522-41.624-5.077.347-10.197.796-15.22 1.335-4.119.442-7.099 4.139-6.656 8.258.442 4.118 4.142 7.099 8.258 6.656 4.831-.519 9.756-.951 14.637-1.284 31.722-2.152 76.742-.808 111.085 17.807 20.236 10.969 27.271 22.963 27.309 23.028 1.094 1.986 3.033 3.366 5.267 3.762.434.077.87.115 1.304.115 1.8 0 3.559-.649 4.937-1.849.148-.129 11.776-10.118 26.123-13.672-6.505 13.351-10.16 28.335-10.16 44.158 0 37.6 20.621 70.472 51.147 87.908-2.065 9.142-4.118 16.782-5.602 21.98-2.82-.691-5.756-1.079-8.773-1.136-14.444-6.173-22.592-25.843-26.903-41.476-4.664-16.907-17.464-30.003-34.242-35.034-16.731-5.017-34.569-1.139-47.717 10.371-23.98 20.992-60.146 20.992-84.127 0-13.148-11.511-30.987-15.388-47.717-10.371-16.777 5.031-29.578 18.127-34.241 35.034-7.656 27.753-18.63 37.923-26.887 41.476-3.451.064-6.795.565-9.982 1.452-.656-5.397-1.355-10.874-2.086-16.555-4.58-35.606-9.315-72.424-3.351-102.181 6.493-32.396 24.715-50.496 57.346-56.964 4.842-.96 9.593-1.836 14.122-2.602 4.084-.691 6.835-4.562 6.144-8.646-.69-4.084-4.554-6.835-8.646-6.144-4.667.79-9.559 1.691-14.537 2.678-38.793 7.689-61.408 30.171-69.137 68.729-6.448 32.173-1.553 70.234 3.181 107.042.976 7.591 1.901 14.825 2.722 21.928-9.23 7.363-15.161 18.697-15.161 31.397 0 19.71 14.283 36.135 33.039 39.5.209 6.721.472 13.43.814 20.115 1.777 34.588 22.456 63.802 51.994 77.712-5.38 5.33-12.044 13.068-18.869 23.829-15.596 24.594-26.296 55.604-31.802 92.168-.325 2.16.307 4.354 1.732 6.009s3.5 2.607 5.685 2.607h295.404c2.184 0 4.259-.952 5.684-2.607s2.058-3.849 1.733-6.008c-2.918-19.401-7.378-37.474-13.254-53.715-1.409-3.896-5.711-5.909-9.604-4.501-3.896 1.41-5.91 5.709-4.501 9.604 4.667 12.897 8.393 27.069 11.107 42.227h-277.737c11.985-67.013 40.002-95.401 50.37-103.856 2.966.767 5.989 1.395 9.068 1.867 1.641 13.492 10.078 25.851 24.208 35.202 14.859 9.833 34.472 15.249 55.225 15.249s40.364-5.416 55.22-15.25c14.125-9.35 22.56-21.709 24.201-35.201 3.078-.472 6.101-1.099 9.066-1.866 5.651 4.63 16.758 15.387 27.61 35.401 1.358 2.505 3.937 3.927 6.6 3.927 1.207 0 2.433-.292 3.568-.908 3.641-1.975 4.992-6.527 3.018-10.168-8.793-16.217-17.839-27.102-24.827-34.016 29.537-13.911 50.209-43.124 51.977-77.708.342-6.69.606-13.398.815-20.112 18.76-3.362 33.046-19.789 33.046-39.501 0-13.443-6.645-25.355-16.815-32.647 1.405-4.793 3.501-12.356 5.698-21.753 11.228 4.309 23.41 6.678 36.136 6.678 55.781 0 101.163-45.382 101.163-101.163-.001-55.783-45.382-101.165-101.164-101.165zm-390.61 250.049c0-11.402 7.624-21.05 18.038-24.125-.499 16.003-.627 32.085-.371 48.132-10.225-3.19-17.667-12.745-17.667-24.007zm175.297 180.402c-31.781 0-59.095-15.139-63.973-34.227 21.245.919 42.603 1.402 63.972 1.402 21.363 0 42.726-.483 63.961-1.402-4.876 19.088-32.185 34.227-63.96 34.227zm141.452-121.555c-2.006 39.253-33.151 70.252-72.447 72.107-45.787 2.163-92.222 2.163-138.02 0-39.285-1.855-70.431-32.855-72.448-72.108-1.467-28.667-1.695-57.757-.681-86.542 14.582-7.601 25.528-24.363 32.579-49.927 3.282-11.899 12.288-21.115 24.089-24.654 11.755-3.524 24.289-.799 33.529 7.29 29.612 25.923 74.274 25.923 103.887 0 9.24-8.089 21.772-10.814 33.529-7.29 11.802 3.539 20.808 12.755 24.09 24.655 7.051 25.562 17.996 42.323 32.575 49.925 1.02 28.671.791 57.764-.682 86.544zm16.171-34.838c.259-16.082.13-32.165-.371-48.135 10.416 3.073 18.042 12.723 18.042 24.127 0 11.262-7.445 20.819-17.671 24.008zm57.69-86.731c-47.511 0-86.163-38.653-86.163-86.163s38.653-86.164 86.163-86.164 86.163 38.653 86.163 86.163-38.652 86.164-86.163 86.164z"/><path d="m455.438 93.663h-94.439c-4.143 0-7.5 3.358-7.5 7.5s3.357 7.5 7.5 7.5h94.439c4.143 0 7.5-3.358 7.5-7.5s-3.357-7.5-7.5-7.5z"/></g></svg>