<svg id="Capa_1" enable-background="new 0 0 512.174 512.174" height="512" viewBox="0 0 512.174 512.174" width="512" xmlns="http://www.w3.org/2000/svg"><path d="m287.403 134.251v-12.135c0-17.269-14.049-31.318-31.318-31.318s-31.318 14.049-31.318 31.318v12.145c-33.264 9.402-56.812 40.055-56.812 75.114 0 43.037 35.013 78.049 78.05 78.049h20.159c8.499 0 15.414 6.916 15.414 15.416s-6.915 15.414-15.414 15.414h-20.159c-6.408 0-12.051-3.854-14.377-9.82-6.276-16.088-24.471-24.075-40.556-17.799-16.088 6.274-24.073 24.467-17.799 40.556 9.019 23.127 28.01 40.259 51.494 46.805v12.102c0 17.269 14.049 31.318 31.318 31.318s31.318-14.049 31.318-31.318v-12.146c19.729-5.575 36.552-18.75 46.77-36.842 2.037-3.607.765-8.182-2.842-10.219-3.607-2.038-8.182-.765-10.219 2.842-9.093 16.101-24.645 27.383-42.667 30.955-3.512.696-6.042 3.777-6.042 7.357v18.052c0 8.998-7.32 16.318-16.318 16.318s-16.318-7.32-16.318-16.318v-18.029c0-3.589-2.542-6.675-6.065-7.361-21.183-4.129-38.549-18.696-46.454-38.966-3.269-8.383.892-17.863 9.274-21.132 8.379-3.269 17.861.891 21.131 9.274 4.588 11.767 15.717 19.37 28.352 19.37h20.159c16.771 0 30.414-13.644 30.414-30.414 0-16.771-13.644-30.416-30.414-30.416h-20.159c-34.766 0-63.05-28.284-63.05-63.049 0-30.008 21.352-56.02 50.77-61.85 3.512-.696 6.042-3.777 6.042-7.357v-18.052c0-8.998 7.32-16.318 16.318-16.318s16.318 7.32 16.318 16.318v18.048c0 3.583 2.533 6.665 6.048 7.358 20.512 4.048 37.635 17.995 45.803 37.307 3.505 8.286-.386 17.879-8.673 21.384-8.286 3.506-17.88-.385-21.386-8.673-4.774-11.287-15.776-18.58-28.03-18.58h-20.159c-16.771 0-30.415 13.644-30.415 30.415s13.644 30.415 30.415 30.415h20.159c34.766 0 63.05 28.284 63.05 63.05 0 4.142 3.357 7.5 7.5 7.5s7.5-3.358 7.5-7.5c0-43.037-35.013-78.05-78.05-78.05h-20.159c-8.5 0-15.415-6.915-15.415-15.415s6.915-15.415 15.415-15.415h20.159c6.214 0 11.794 3.699 14.216 9.424 6.728 15.904 25.137 23.371 41.044 16.645 15.904-6.728 23.371-25.139 16.644-41.043-9.296-21.979-27.971-38.345-50.666-44.734z"/><path d="m32.99 381.134-19.376 19.434c-3.029 3.038-4.218 7.5-3.101 11.642s4.386 7.401 8.532 8.506l112.267 29.899c10.664 2.838 20.407-6.92 17.534-17.585l-30.226-112.18c-1.116-4.143-4.385-7.402-8.531-8.507s-8.604.096-11.633 3.135l-13.676 13.716c-10.767-25.195-15.914-52.833-14.926-80.426 4.284-119.706 119.305-204.385 235.173-172.32 4.016 1.109 8.166-1.266 9.244-5.287l14.132-52.739c1.066-3.978-1.274-8.071-5.244-9.17-67.381-18.646-140.489-8.398-200.579 28.118-3.54 2.151-4.666 6.764-2.514 10.304 2.15 3.539 6.764 4.666 10.304 2.514 54.435-33.08 120.204-43.265 181.588-28.351l-10.256 38.273c-123.325-29.212-242.317 61.746-246.839 188.121-1.168 32.645 5.62 65.358 19.632 94.605 1.327 2.769 3.928 4.729 6.959 5.246 3.035.518 6.148-.476 8.324-2.657l15.688-15.734 28.596 106.134-106.215-28.288 18.743-18.797c3.041-3.048 3.644-7.775 1.464-11.496-19.71-33.638-31.056-72.041-32.811-111.057-3.521-78.267 31.49-150.346 87.482-196.386 3.199-2.631 3.66-7.357 1.029-10.557-2.631-3.199-7.356-3.661-10.557-1.029-59.495 48.922-96.68 125.467-92.939 208.646 1.8 40.02 13.103 79.437 32.732 114.273z"/><path d="m479.18 131.078 19.378-19.433c3.028-3.038 4.217-7.499 3.101-11.641-1.117-4.143-4.387-7.402-8.533-8.507l-112.267-29.899c-10.662-2.838-20.407 6.919-17.534 17.585l30.226 112.18c1.116 4.143 4.386 7.402 8.532 8.506 4.142 1.102 8.603-.097 11.631-3.135l13.677-13.716c2.894 6.768 5.396 13.739 7.469 20.808 1.165 3.975 5.33 6.251 9.307 5.087 3.976-1.166 6.253-5.332 5.088-9.307-3.038-10.364-6.934-20.534-11.579-30.229-1.327-2.768-3.929-4.729-6.958-5.245-3.038-.517-6.148.476-8.325 2.657l-15.688 15.734-28.598-106.135 106.216 28.288-18.747 18.802c-3.037 3.048-3.638 7.773-1.46 11.492 19.71 33.636 31.056 72.039 32.812 111.056 7.189 159.851-141.841 281.909-296.715 244.348l10.255-38.271c133.443 31.61 260.571-77.755 245.837-216.835-.436-4.119-4.119-7.103-8.248-6.668-4.119.437-7.104 4.129-6.668 8.249 11.82 111.606-75.668 205.668-184.701 205.661-16.448-.001-33.105-2.194-49.544-6.743-4.027-1.111-8.17 1.274-9.245 5.287l-14.132 52.739c-1.066 3.978 1.275 8.071 5.244 9.17 21.917 6.065 44.613 9.077 67.345 9.077 146.38-.002 262.069-121.896 255.556-266.686-1.801-40.024-13.103-79.441-32.732-114.276z"/></svg>