<svg id="Capa_1" enable-background="new 0 0 512 512" height="512" viewBox="0 0 512 512" width="512" xmlns="http://www.w3.org/2000/svg"><g><path d="m395.852 182.321c3.271-6.51 5.883-13.322 7.764-20.362 1.069-4.002-1.308-8.113-5.31-9.182-4.002-1.068-8.113 1.308-9.182 5.31-1.888 7.066-4.628 13.869-8.14 20.299-11.302-2.438-23.024-3.733-35.045-3.733-32.835 0-64.166 9.404-91.247 27.29-9.174-25.43-25.988-47.241-47.664-62.638-.095-1.727-.158-3.465-.158-5.212 0-51.115 41.585-92.7 92.7-92.7 24.208 0 47.113 9.278 64.496 26.125 17.343 16.81 27.337 39.334 28.139 63.424.138 4.14 3.589 7.387 7.746 7.246 4.14-.138 7.384-3.605 7.246-7.745-.932-27.995-12.542-54.167-32.691-73.696-20.196-19.574-46.809-30.354-74.935-30.354-58.036 0-105.489 46.145-107.617 103.67-18.172-9.53-38.834-14.932-60.736-14.932-72.354 0-131.218 58.864-131.218 131.217s58.864 131.217 131.217 131.217c18 0 35.164-3.646 50.795-10.233 1.116 6.923 2.674 13.76 4.655 20.465-21.716 4-38.224 23.06-38.224 45.915 0 25.75 20.95 46.7 46.7 46.7 15.191 0 28.707-7.295 37.241-18.562 5.954 5.583 12.302 10.734 18.969 15.363 1.304.905 2.794 1.339 4.27 1.339 2.375 0 4.711-1.125 6.168-3.224 2.362-3.403 1.519-8.076-1.884-10.438-7.215-5.008-14.024-10.687-20.302-16.908 1.448-4.501 2.239-9.295 2.239-14.271 0-23.32-17.182-42.702-39.552-46.153-2.883-8.837-4.939-17.958-6.139-27.221 39.561-22.625 66.282-65.244 66.282-113.99 0-10.06-1.142-19.858-3.296-29.275 25.478-17.953 55.38-27.421 86.802-27.421 83.295 0 151.06 67.761 151.06 151.05 0 83.294-67.765 151.06-151.06 151.06-21.479 0-42.213-4.406-61.626-13.096-3.781-1.692-8.217 0-9.91 3.782-1.692 3.78.001 8.217 3.782 9.91 21.354 9.558 44.149 14.404 67.754 14.404 91.566 0 166.06-74.494 166.06-166.06-.001-74.175-48.896-137.142-116.149-158.38zm-169.009 251.391c0 17.479-14.221 31.7-31.7 31.7s-31.7-14.221-31.7-31.7 14.221-31.7 31.7-31.7 31.7 14.22 31.7 31.7zm-95.626-71.147c-64.082 0-116.217-52.135-116.217-116.217s52.135-116.217 116.217-116.217 116.216 52.135 116.216 116.217-52.134 116.217-116.216 116.217z"/><path d="m344.796 386.39c-16.061.085-21.044-.558-33.096-7.051-10.445-5.626-23.521-1.707-29.146 8.736-2.726 5.06-3.319 10.877-1.668 16.383 1.65 5.505 5.345 10.038 10.404 12.764 11.7 6.304 21.229 9.668 32.114 11.165.378 11.535 9.879 20.801 21.504 20.801 11.864 0 21.516-9.652 21.516-21.516v-1.266c27.424-7.904 42.329-29.684 45.01-48.856 2.846-20.354-6.569-47.832-42.47-58.284-14.234-4.144-31.748-9.658-40.898-15.569-.104-.067-.147-.11-.151-.11-.053-.114-.126-.574-.014-1.248.154-.922 1.293-5.616 8.646-7.439 17.705-4.396 28.97 3.21 29.424 3.525 9.686 6.844 23.139 4.531 29.988-5.157 6.845-9.689 4.531-23.142-5.158-29.987-2.594-1.833-11.257-7.418-24.4-10.563-.537-11.39-9.971-20.491-21.492-20.491-11.864 0-21.516 9.652-21.516 21.516v.158c-19.954 5.998-34.705 21.964-37.938 41.364-2.984 17.896 4.396 34.978 19.261 44.58 11.085 7.16 26.214 13.169 52.218 20.74 4.816 1.402 12.765 4.697 11.882 11.01-1.284 9.184-13.222 14.736-24.02 14.795zm16.331-40.21c-24.509-7.135-38.495-12.622-48.272-18.938-9.759-6.304-14.589-17.613-12.604-29.514 2.398-14.389 13.994-26.179 29.543-30.036.892-.221 1.774-.422 2.648-.607 3.468-.733 5.95-3.793 5.95-7.338v-6.007c0-3.593 2.923-6.516 6.516-6.516s6.516 2.923 6.516 6.516v5.139c0 3.696 2.692 6.841 6.344 7.41 13.802 2.153 22.727 8.074 24.376 9.24 2.935 2.073 3.635 6.147 1.563 9.08-2.075 2.935-6.149 3.636-9.086 1.56-1.736-1.224-17.652-11.794-41.688-5.83-12.747 3.162-18.601 12.162-19.83 19.532-1.131 6.793 1.418 12.933 6.822 16.424 10.721 6.925 28.686 12.667 44.845 17.372 34.436 10.025 32.537 36.583 31.807 41.805-2.137 15.287-15.065 32.87-39.128 37.692-3.504.703-6.026 3.78-6.026 7.354v7.152c0 3.593-2.923 6.516-6.516 6.516s-6.516-2.923-6.516-6.516v-6.069c0-3.95-3.064-7.224-7.006-7.484-10.011-.661-19.02-2.581-32.981-10.103-1.532-.826-2.651-2.198-3.151-3.865s-.32-3.429.505-4.961c1.176-2.183 3.426-3.424 5.748-3.424 1.042 0 2.1.25 3.08.778 14.458 7.79 21.981 8.945 40.29 8.846 16.942-.093 36.296-9.84 38.796-27.721.659-4.715.982-20.638-22.545-27.487z"/><path d="m162.539 172.426c-3.82-1.604-8.215.194-9.818 4.013l-55.06 131.196c-1.603 3.819.194 8.215 4.013 9.818.948.398 1.932.586 2.899.586 2.931 0 5.714-1.729 6.919-4.6l55.06-131.196c1.603-3.819-.194-8.215-4.013-9.817z"/><path d="m125.865 201.498c0-19.724-14.278-35.771-31.829-35.771s-31.829 16.047-31.829 35.771 14.278 35.771 31.829 35.771 31.829-16.047 31.829-35.771zm-31.829 20.771c-9.279 0-16.829-9.318-16.829-20.771s7.549-20.771 16.829-20.771 16.829 9.318 16.829 20.771-7.55 20.771-16.829 20.771z"/><path d="m168.397 255.428c-17.55 0-31.829 16.047-31.829 35.771s14.278 35.771 31.829 35.771 31.829-16.047 31.829-35.771-14.278-35.771-31.829-35.771zm0 56.542c-9.279 0-16.829-9.318-16.829-20.771s7.549-20.771 16.829-20.771 16.829 9.318 16.829 20.771-7.549 20.771-16.829 20.771z"/><path d="m345.636 137.632c4.142 0 7.5-3.358 7.5-7.5v-41.128c0-4.142-3.358-7.5-7.5-7.5h-41.128c-4.142 0-7.5 3.358-7.5 7.5s3.358 7.5 7.5 7.5h23.021l-69.737 69.737c-2.929 2.929-2.929 7.678 0 10.606 1.464 1.464 3.384 2.197 5.303 2.197s3.839-.732 5.303-2.197l69.737-69.737v23.021c.001 4.143 3.359 7.501 7.501 7.501z"/><path d="m446.277 105.015.641 1.769c2.94 8.113 10.681 13.261 18.952 13.26 1.824 0 3.675-.25 5.505-.775l19.614-5.621c5.339-1.53 9.85-5.245 12.375-10.192s2.889-10.779.997-16.001l-1.592-4.393c-1.892-5.222-5.906-9.468-11.014-11.649-5.108-2.18-10.951-2.145-16.031.101l-18.663 8.247c-9.637 4.258-14.373 15.35-10.784 25.254zm16.845-11.535 18.663-8.247c.666-.294 1.367-.441 2.068-.441.68 0 1.361.139 2.01.416 1.318.563 2.313 1.615 2.802 2.964l1.592 4.393c.488 1.348.398 2.794-.253 4.071s-1.77 2.197-3.148 2.593l-19.614 5.621c-2.577.742-5.309-.657-6.221-3.175l-.641-1.769s0 0 0-.001c-.913-2.52.291-5.341 2.742-6.425z"/><path d="m473.751 146.904c-10.469-1.132-20.12 6.109-21.965 16.479v.001l-.329 1.851c-1.844 10.371 4.717 20.492 14.938 23.042l19.798 4.938c1.596.398 3.224.594 4.847.594 3.858 0 7.686-1.107 10.966-3.233 4.66-3.021 7.891-7.891 8.863-13.358l.818-4.602c.972-5.468-.382-11.153-3.715-15.595-3.333-4.443-8.412-7.333-13.934-7.928zm22.223 19.119c.86 1.147 1.196 2.556.945 3.967l-.818 4.602c-.251 1.412-1.051 2.618-2.254 3.398-1.202.78-2.631 1.021-4.022.672l-19.797-4.938c-2.6-.649-4.27-3.224-3.8-5.862l.329-1.852c.47-2.638 2.926-4.471 5.587-4.192l20.286 2.189c1.424.153 2.683.87 3.544 2.016z"/><path d="m412.32 57.22c0 .001 0 .001 0 0l1.439 1.211c3.745 3.151 8.349 4.704 12.94 4.704 5.291 0 10.565-2.063 14.483-6.12l14.175-14.675c3.859-3.995 5.908-9.466 5.622-15.013s-2.888-10.779-7.138-14.356l-3.575-3.008c-4.249-3.576-9.847-5.248-15.363-4.581-5.514.665-10.556 3.619-13.833 8.103l-12.039 16.474c-6.215 8.504-4.771 20.479 3.289 27.261zm8.822-18.411 12.039-16.474c.846-1.157 2.095-1.889 3.518-2.061s2.812.242 3.909 1.166l3.575 3.008c1.097.923 1.742 2.221 1.816 3.652.074 1.432-.434 2.788-1.43 3.819l-14.176 14.676c-1.861 1.927-4.925 2.085-6.977.359l-1.438-1.21c-2.05-1.726-2.417-4.772-.836-6.935z"/></g></svg>