<svg id="Capa_1" enable-background="new 0 0 511.992 511.992" height="512" viewBox="0 0 511.992 511.992" width="512" xmlns="http://www.w3.org/2000/svg"><g><path d="m507.319 26.74c-4.607-14.852-18.373-24.986-34.258-25.218-144.021-2.03-290.078-2.03-434.111 0-16.068.227-30.321 11.134-34.663 26.525-2.639 9.358-2.509 18.844.386 28.197 3.075 9.911 10.231 17.716 19.37 21.884-11.863 103.466-10.465 208.282 4.181 311.647.49 3.46 3.306 6.123 6.787 6.42 70.835 6.052 142.152 9.171 213.485 9.376v11.958c-22.656 3.608-40.03 23.277-40.03 46.933 0 26.208 21.322 47.53 47.53 47.53s47.53-21.322 47.53-47.53c0-23.656-17.374-43.326-40.03-46.933v-11.958c71.332-.205 142.648-3.324 213.482-9.376 3.481-.297 6.297-2.96 6.787-6.42 14.651-103.396 16.043-208.247 4.17-311.75 9.433-4.407 16.848-12.728 19.77-23.087 2.639-9.359 2.509-18.844-.386-28.198zm-218.793 437.722c0 17.937-14.593 32.53-32.53 32.53s-32.53-14.593-32.53-32.53 14.593-32.53 32.53-32.53 32.53 14.593 32.53 32.53zm204.742-413.596c-2.552 9.05-10.956 15.463-20.436 15.597-19.612.274-35.972.477-51.484.64-4.143.043-7.465 3.436-7.422 7.578.043 4.115 3.393 7.421 7.498 7.421h.08c15.531-.163 31.907-.366 51.538-.64.063-.001.126-.005.19-.007 11.293 99.699 10.123 200.659-3.495 300.297-141.872 11.785-285.615 11.785-427.485 0-13.618-99.64-14.788-200.601-3.493-300.296.058.001.115.005.172.006 72.021 1.018 144.65 1.527 217.147 1.527 45.27 0 90.497-.199 135.465-.597 4.142-.037 7.47-3.424 7.434-7.566-.037-4.12-3.388-7.434-7.499-7.434-.022 0-.045 0-.067 0-116.866 1.034-235.388.722-352.265-.929-9.372-.137-17.468-6.029-20.145-14.659-2.052-6.63-2.143-13.069-.276-19.687 2.552-9.05 10.956-15.463 20.437-15.597 143.891-2.029 289.805-2.029 433.686 0 9.372.137 17.468 6.029 20.145 14.659 2.05 6.631 2.141 13.07.275 19.687z"/><path d="m233.466 464.462c0 12.423 10.107 22.53 22.53 22.53s22.53-10.107 22.53-22.53-10.107-22.53-22.53-22.53-22.53 10.107-22.53 22.53zm30.06 0c0 4.152-3.378 7.53-7.53 7.53s-7.53-3.378-7.53-7.53 3.378-7.53 7.53-7.53 7.53 3.378 7.53 7.53z"/><path d="m237.706 190.412c0-13.878-3.037-27.059-8.474-38.919l22.177-17.297h70.397c4.143 0 7.5-3.358 7.5-7.5s-3.357-7.5-7.5-7.5h-72.977c-1.671 0-3.295.558-4.612 1.586l-22.405 17.476c-16.838-25.038-45.43-41.545-77.806-41.545-51.666 0-93.7 42.034-93.7 93.7 0 19.454 5.904 38.098 17.073 53.916 2.39 3.383 7.069 4.19 10.453 1.8 3.384-2.389 4.189-7.069 1.801-10.453-9.373-13.273-14.327-28.925-14.327-45.264 0-40.865 31.312-74.544 71.202-78.333v22.166c-27.72 3.683-49.183 27.46-49.183 56.172 0 31.255 25.428 56.683 56.683 56.683 28.713 0 52.491-21.464 56.172-49.186h22.16c-3.601 37.897-34.187 68.027-72.277 70.943l1.123-3.689c1.206-3.962-1.027-8.153-4.99-9.359-3.965-1.207-8.153 1.027-9.359 4.99l-2.356 7.739c-12.855-1.546-25.059-6.215-35.731-13.743-3.386-2.387-8.063-1.579-10.452 1.806-2.388 3.385-1.579 8.064 1.806 10.452 11.992 8.459 25.602 13.888 39.951 16.025l-9.93 32.613h-62.316c-4.143 0-7.5 3.358-7.5 7.5s3.357 7.5 7.5 7.5h67.871c3.301 0 6.213-2.158 7.175-5.315l12.569-41.279c51.014-.764 92.282-42.492 92.282-93.685zm-27.767-42.893-5.469 4.266c-3.267 2.547-3.849 7.26-1.302 10.526 1.479 1.896 3.688 2.888 5.919 2.888 1.612 0 3.238-.518 4.607-1.586l3.302-2.576c2.775 6.87 4.615 14.212 5.343 21.877h-22.16c-3.358-25.263-23.408-45.312-48.672-48.669v-22.166c24.451 2.324 45.664 15.882 58.432 35.44zm-65.931 84.58c-22.983 0-41.683-18.699-41.683-41.683s18.699-41.683 41.683-41.683 41.684 18.699 41.684 41.683-18.7 41.683-41.684 41.683z"/><path d="m326.458 206.684c-1.631-1.63-3.921-2.419-6.206-2.142-2.288.277-4.321 1.591-5.515 3.563l-62.226 102.834-31.792-26.05c-1.598-1.308-3.664-1.9-5.713-1.637-2.049.264-3.897 1.361-5.11 3.033l-37.727 51.978c-2.434 3.353-1.688 8.042 1.664 10.476 1.33.966 2.872 1.431 4.399 1.431 2.32 0 4.608-1.074 6.075-3.095l33.056-45.542 32.333 26.493c1.681 1.378 3.875 1.959 6.022 1.59 2.144-.368 4.021-1.648 5.147-3.509l61.75-102.049 37.238 37.239c1.491 1.49 3.523 2.292 5.646 2.189 2.106-.097 4.075-1.075 5.423-2.696l88.918-106.9c2.649-3.184 2.215-7.913-.97-10.562-3.185-2.648-7.913-2.214-10.562.97l-83.661 100.58z"/><path d="m454.077 178.049c-4.143 0-7.5 3.358-7.5 7.5v173.488c0 4.142 3.357 7.5 7.5 7.5s7.5-3.358 7.5-7.5v-173.488c0-4.143-3.357-7.5-7.5-7.5z"/><path d="m406.455 238.38c-4.143 0-7.5 3.358-7.5 7.5v113.157c0 4.142 3.357 7.5 7.5 7.5s7.5-3.358 7.5-7.5v-113.157c0-4.142-3.357-7.5-7.5-7.5z"/><path d="m358.833 280.819c-4.143 0-7.5 3.358-7.5 7.5v70.718c0 4.142 3.357 7.5 7.5 7.5s7.5-3.358 7.5-7.5v-70.718c0-4.142-3.357-7.5-7.5-7.5z"/><path d="m311.21 266.758c-4.143 0-7.5 3.358-7.5 7.5v84.779c0 4.142 3.357 7.5 7.5 7.5s7.5-3.358 7.5-7.5v-84.779c0-4.143-3.357-7.5-7.5-7.5z"/><path d="m263.588 336.57c-4.143 0-7.5 3.358-7.5 7.5v14.967c0 4.142 3.357 7.5 7.5 7.5s7.5-3.358 7.5-7.5v-14.967c0-4.143-3.357-7.5-7.5-7.5z"/><path d="m215.966 321.602c-4.143 0-7.5 3.358-7.5 7.5v29.935c0 4.142 3.357 7.5 7.5 7.5s7.5-3.358 7.5-7.5v-29.935c0-4.142-3.357-7.5-7.5-7.5z"/><path d="m57.809 307.243h46.303c4.143 0 7.5-3.358 7.5-7.5s-3.357-7.5-7.5-7.5h-46.303c-4.143 0-7.5 3.358-7.5 7.5s3.357 7.5 7.5 7.5z"/><path d="m275.503 111.717h46.303c4.143 0 7.5-3.358 7.5-7.5s-3.357-7.5-7.5-7.5h-46.303c-4.143 0-7.5 3.358-7.5 7.5s3.357 7.5 7.5 7.5z"/><path d="m390.713 173.049h-68.907c-4.143 0-7.5 3.358-7.5 7.5s3.357 7.5 7.5 7.5h68.907c4.143 0 7.5-3.358 7.5-7.5s-3.357-7.5-7.5-7.5z"/><path d="m358.833 160.95h31.88c4.143 0 7.5-3.358 7.5-7.5s-3.357-7.5-7.5-7.5h-31.88c-4.143 0-7.5 3.358-7.5 7.5s3.358 7.5 7.5 7.5z"/></g></svg>