<svg height="512pt" viewBox="-3 0 512 512.00141" width="512pt" xmlns="http://www.w3.org/2000/svg"><path d="m505.074219 393.433594c0-55.34375-26.199219-99.125-80.011719-133.773438v-18.183594l16.253906-92.609374c1.585938-8.117188-4.632812-15.65625-12.890625-15.65625h-75.664062c-8.285157 0-14.492188 7.570312-12.886719 15.683593l16.433594 92.628907v18.152343c-20.894532 13.589844-37.277344 28.179688-49.703125 44.304688-38.746094-27.050781-90.207031-27.082031-128.863281-1.207031-12.617188-8.476563-26.832032-14.34375-41.828126-17.242188-4.105468-.796875-8.070312 1.898438-8.859374 6.003906-.785157 4.09375 1.898437 8.070313 5.992187 8.855469 11.347656 2.191406 22.171875 6.34375 32.027344 12.246094 87.324219 52.195312 47.933593 184.117187-50.898438 184.117187-24.855469 0-48.640625-9.269531-66.96875-26.09375-62.839843-57.679687-27.886719-163.703125 57.847657-171.640625 4.15625-.382812 7.222656-4.066406 6.839843-8.230469-.382812-4.15625-4.0625-7.234374-8.230469-6.839843-58.648437 5.421875-103.664062 54.667969-103.664062 113.699219 0 91.015624 101.746094 145.695312 177.722656 94.910156 40.683594 27.292968 94.675782 25.414062 133.320313-4.4375 13.050781 11.710937 29.855469 18.144531 47.429687 18.144531h63.839844c24.242188 0 44.199219-11.800781 59.613281-30.753906 2.644531-3.238281 2.148438-8-1.089843-10.640625-3.238282-2.632813-7.996094-2.148438-10.640626 1.089844-12.425781 15.273437-27.941406 25.175781-47.882812 25.175781h-63.839844c-13.234375 0-25.925781-4.640625-35.992187-13.132813 45.007812-45.007812 44.171875-120.289062-3.941407-164.460937-.042968-.039063-.082031-.070313-.121093-.109375 11.738281-15.273438 27.554687-29.171875 47.660156-42.0625h49.234375c50.910156 32.246094 74.632812 71.050781 74.632812 122.0625 0 18.480468.984376 30.730468-5.839843 48.519531-1.503907 3.890625.445312 8.269531 4.347656 9.773437 3.902344 1.492188 8.28125-.453124 9.773437-4.359374 7.878907-20.488282 6.847657-34.972657 6.847657-53.933594zm-284.753907 46.488281c3.460938 2.179687 8 3.925781 13.414063 4.703125v7.667969c0 4.179687 3.386719 7.566406 7.566406 7.566406 4.179688 0 7.566407-3.386719 7.566407-7.566406v-8.242188c12.105468-2.9375 19.074218-12.175781 19.074218-25.945312 0-19.457031-13.535156-24.664063-24.421875-28.839844-8.613281-3.316406-15.433593-5.929687-15.433593-13.910156 0-9.15625 8.140624-11.085938 14.960937-11.085938 6.597656 0 10.1875 1.847657 12.808594 3.199219 1.515625.785156 2.714843 1.402344 4.027343 1.402344 3.914063 0 5.878907-4.539063 5.878907-7.082032 0-5.527343-8.855469-8.28125-16.894531-9.179687v-8.085937c0-4.179688-3.386719-7.566407-7.566407-7.566407-4.179687 0-7.566406 3.386719-7.566406 7.566407v8.722656c-4.902344 1.097656-8.945313 3.125-12.023437 5.992187-2.894532-8.101562-6.695313-15.867187-11.335938-23.128906 50.695312-25.617187 109.226562 18.339844 98.621094 74.378906-8.457032 44.753907-57.566406 69.300781-98.601563 48.75 3.945313-6.121093 7.261719-12.585937 9.925781-19.316406zm4.328126-13.132813c2.480468-9.390624 3.761718-19.132812 3.761718-29.039062 2.84375 1.472656 5.859375 2.671875 8.777344 3.824219 9.417969 3.71875 17.550781 6.9375 17.550781 17.5 0 11.75-9.605469 13.507812-15.324219 13.507812-7.867187 0-11.910156-3.089843-14.765624-5.792969zm115.6875-29.070312c0 76.539062-83.710938 124.644531-149.902344 84.972656 3.75-3.324218 7.351562-7 10.851562-11.125 49.125 26.609375 111.824219-1.492187 122.578125-58.273437 13.144531-69.398438-60.554687-123.1875-122.585937-89.5-3.667969-4.351563-6.953125-7.625-10.835938-11.15625 65.769532-39.300781 149.894532 7.980469 149.894532 85.082031zm69.597656-141.484375h-38.492188v-7.792969h38.492188zm1.199218-22.925781h-40.914062l-15.074219-84.964844h70.902344zm0 0"/><path d="m25.199219 270.109375h284.726562c11.679688 0 21.183594-9.503906 21.183594-21.183594v-150.566406c0-11.679687-9.503906-21.183594-21.183594-21.183594h-43.421875l-75-42.070312c6.644532-16.898438-5.933594-35.105469-23.941406-35.105469-18.011719 0-30.585938 18.210938-23.941406 35.105469l-75 42.070312h-43.421875c-11.679688 0-21.183594 9.503907-21.183594 21.183594v150.566406c0 11.679688 9.503906 21.183594 21.183594 21.183594zm142.363281-254.980469c5.839844 0 10.589844 4.753906 10.589844 10.59375s-4.75 10.589844-10.589844 10.589844-10.589844-4.75-10.589844-10.589844 4.75-10.59375 10.589844-10.59375zm-14.339844 31.9375c8.667969 5.839844 20.011719 5.839844 28.679688 0l53.679687 30.109375h-136.035156zm-134.074218 51.292969c0-3.335937 2.714843-6.050781 6.050781-6.050781h284.726562c3.339844 0 6.050781 2.714844 6.050781 6.050781v150.570313c0 3.335937-2.710937 6.050781-6.050781 6.050781h-284.726562c-3.335938 0-6.050781-2.714844-6.050781-6.050781zm0 0"/><path d="m46.164062 211.984375h38.679688c3.171875 0 4.757812-3.539063 4.757812-6.957031 0-3.535156-1.585937-6.953125-4.757812-6.953125h-29.773438v-70.398438c0-3.417969-4.023437-4.882812-7.929687-4.882812-4.023437 0-7.929687 1.464843-7.929687 4.882812v79.304688c0 3.296875 3.417968 5.003906 6.953124 5.003906zm0 0"/><path d="m124.375 212.714844c16.101562 0 28.671875-7.5625 28.671875-27.9375v-34.039063c0-20.378906-12.570313-27.941406-28.671875-27.941406-16.109375 0-28.550781 7.5625-28.550781 27.941406v34.039063c0 20.375 12.441406 27.9375 28.550781 27.9375zm-12.691406-61.976563c0-9.640625 4.636718-14.03125 12.691406-14.03125 7.929688 0 12.808594 4.390625 12.808594 14.03125v34.039063c0 9.636718-4.878906 14.03125-12.808594 14.03125-8.054688 0-12.691406-4.394532-12.691406-14.03125zm0 0"/><path d="m175.738281 208.8125 4.636719-16.226562h27.9375l4.636719 16.226562c.609375 2.316406 2.683593 3.171875 5.367187 3.171875 4.171875 0 11-2.867187 9.761719-7.808594l-23.546875-76.742187c-1.097656-3.660156-5.613281-5.367188-10.25-5.367188-4.511719 0-9.027344 1.707032-10.125 5.367188-24.425781 79.605468-23.792969 77.296875-23.792969 77.964844 0 5.929687 13.761719 9.542968 15.375 3.414062zm18.542969-66.128906 10.617188 37.457031h-21.230469zm0 0"/><path d="m252.601562 206.980469v-49.046875l26.234376 49.046875c4.277343 7.800781 17.082031 5.542969 17.082031 0v-79.304688c0-3.417969-4.027344-4.878906-7.933594-4.878906-4.023437 0-7.929687 1.460937-7.929687 4.878906v49.046875l-23.546876-45.507812c-3.78125-7.199219-6.101562-8.417969-11.835937-8.417969-4.023437 0-7.925781 1.585937-7.925781 5v79.183594c-.003906 6.699219 15.855468 6.621093 15.855468 0zm0 0"/><path d="m112.320312 432.582031c-8.882812 0-12.890624-3.9375-15.816406-6.808593-1.640625-1.613282-3.058594-3.003907-4.894531-3.003907-3.230469 0-5.996094 3.898438-5.996094 7.085938 0 5.390625 8.019531 12.898437 21.027344 14.761719v7.675781c0 4.179687 3.386719 7.566406 7.566406 7.566406 4.175781 0 7.5625-3.386719 7.5625-7.566406v-8.246094c12.097657-2.941406 19.074219-12.179687 19.074219-25.941406 0-33.769531-39.847656-24.085938-39.847656-42.753907 0-9.160156 8.132812-11.082031 14.957031-11.082031 6.59375 0 10.183594 1.851563 12.808594 3.203125 1.515625.78125 2.714843 1.398438 4.027343 1.398438 3.910157 0 5.871094-4.539063 5.871094-7.082032 0-5.523437-8.851562-8.28125-16.890625-9.171874v-8.09375c0-4.179688-3.386719-7.566407-7.566406-7.566407-4.175781 0-7.5625 3.386719-7.5625 7.566407v8.726562c-11.960937 2.695312-18.847656 10.898438-18.847656 23.070312 0 30.519532 39.847656 19.957032 39.847656 42.753907 0 11.75-9.597656 13.507812-15.320313 13.507812zm0 0"/><path d="m60.953125 441.320312c-2.644531-3.234374-7.410156-3.710937-10.644531-1.066406-3.234375 2.644532-3.710938 7.410156-1.066406 10.644532 16.011718 19.582031 39.851562 30.78125 65.144531 30.78125 68.996093 0 108.261719-79.195313 67.167969-134.265626-15.761719-21.125-40.96875-33.738281-67.421876-33.738281-56.042968 0-96.488281 54.082031-80.378906 108.042969 1.195313 4.003906 5.40625 6.28125 9.414063 5.085938 4.003906-1.195313 6.28125-5.410157 5.085937-9.414063-13.070312-43.769531 19.453125-88.585937 65.878906-88.585937 22.027344 0 42.183594 10.082031 55.296876 27.65625 36.132812 48.421874-3.777344 118.28125-65.109376 109.359374-17.078124-2.484374-32.476562-11.183593-43.367187-24.5zm0 0"/></svg>