<svg id="Layer_1" enable-background="new 0 0 512 512" height="512" viewBox="0 0 512 512" width="512" xmlns="http://www.w3.org/2000/svg"><path d="m504.751 401.471-75.822-75.824c-4.684-4.683-10.911-7.261-17.536-7.261-6.624 0-12.851 2.579-17.534 7.262l-34.239 34.243c-6.737 6.737-15.712 10.447-25.271 10.447-9.558 0-18.533-3.71-25.27-10.447l-154.091-154.09c-6.738-6.737-10.448-15.712-10.448-25.27 0-9.56 3.71-18.534 10.447-25.271l34.242-34.241c4.685-4.683 7.264-10.91 7.263-17.535 0-6.623-2.58-12.849-7.262-17.532l-75.822-75.821c-4.683-4.685-10.91-7.264-17.533-7.264s-12.85 2.579-17.533 7.263l-26.907 26.904c-60.914 60.917-60.914 160.036 0 220.953l26.663 26.663c-45.399 15.621-78.098 58.623-78.098 109.097 0 63.624 51.951 115.385 115.809 115.385 25.875 0 50.348-8.316 70.771-24.047 3.282-2.528 3.895-7.237 1.365-10.519-2.526-3.28-7.234-3.893-10.518-1.365-17.777 13.693-39.086 20.931-61.619 20.931-55.585 0-100.808-45.032-100.808-100.385 0-55.352 45.223-100.384 100.809-100.384 55.585 0 100.807 45.032 100.807 100.384 0 20.087-5.936 39.47-17.165 56.052-2.322 3.43-1.425 8.093 2.005 10.416 3.429 2.321 8.092 1.426 10.415-2.005 5.608-8.282 10.065-17.173 13.318-26.47l31.701 31.701c29.466 29.465 68.7 45.692 110.478 45.692 41.777 0 81.011-16.228 110.474-45.691l26.91-26.906c9.665-9.669 9.664-25.399-.001-35.065zm-137.384 92.661c-37.77 0-73.238-14.667-99.87-41.298l-37.843-37.843c1.299-6.955 1.961-14.06 1.961-21.244 0-63.623-51.951-115.384-115.807-115.384-7.133 0-14.116.65-20.896 1.886l-32.869-32.869c-53.288-53.29-55.008-138.917-5.163-194.295l44.818 44.818c1.466 1.464 3.386 2.197 5.304 2.197 1.92 0 3.84-.732 5.305-2.197 2.929-2.929 2.929-7.678 0-10.607l-44.961-44.959 21.602-21.6c1.851-1.851 4.311-2.87 6.928-2.87 2.615 0 5.075 1.019 6.925 2.87l75.823 75.821c1.85 1.85 2.868 4.31 2.868 6.927.001 2.617-1.018 5.076-2.867 6.926l-21.602 21.601-19.719-19.719c-2.929-2.929-7.677-2.93-10.607 0-2.929 2.929-2.929 7.678 0 10.607l19.718 19.719-2.033 2.034c-9.569 9.57-14.84 22.312-14.84 35.878 0 13.565 5.271 26.307 14.84 35.877l154.093 154.09c9.569 9.57 22.311 14.841 35.876 14.841 13.564 0 26.306-5.271 35.878-14.841l2.031-2.033 89.532 89.531c-25.931 23.356-59.174 36.136-94.425 36.136zm126.778-68.203-21.606 21.602-89.672-89.674 21.6-21.602c1.851-1.85 4.31-2.869 6.927-2.869 2.619 0 5.081 1.02 6.931 2.869l75.819 75.822c3.817 3.819 3.817 10.033.001 13.852z"/><path d="m313.472 249.176c.106.004.213.006.318.006 3.998 0 7.319-3.156 7.487-7.189.543-12.998-4.396-25.702-13.545-34.85-9.149-9.15-21.865-14.083-34.85-13.545-4.139.173-7.354 3.669-7.181 7.807.172 4.139 3.664 7.354 7.806 7.181 8.971-.377 17.335 2.881 23.618 9.164 6.282 6.282 9.537 14.67 9.165 23.619-.172 4.14 3.044 7.635 7.182 7.807z"/><path d="m364.785 251.325c.105.004.211.006.316.006 3.998 0 7.32-3.156 7.488-7.189 1.135-27.326-9.266-54.049-28.535-73.319-19.275-19.271-46.027-29.671-73.317-28.534-4.139.172-7.354 3.667-7.182 7.806.167 4.032 3.489 7.188 7.487 7.188.105 0 .212-.002.317-.007 23.141-.963 45.771 7.841 62.088 24.154 16.312 16.311 25.115 38.943 24.154 62.09-.17 4.139 3.046 7.633 7.184 7.805z"/><path d="m386.738 160.501c1.611 0 3.234-.517 4.603-1.583 3.268-2.545 3.854-7.258 1.309-10.526-3.772-4.843-7.902-9.517-12.275-13.889-29.375-29.376-70.113-45.23-111.786-43.507-4.139.171-7.354 3.665-7.183 7.804s3.704 7.357 7.804 7.183c37.5-1.551 74.141 12.709 100.558 39.125 3.938 3.937 7.655 8.143 11.049 12.5 1.478 1.899 3.688 2.893 5.921 2.893z"/><path d="m416.08 253.472c.106.004.211.006.316.006 3.998 0 7.321-3.157 7.487-7.19.939-22.694-3.351-45.619-12.407-66.298-1.664-3.795-6.086-5.523-9.88-3.861s-5.523 6.085-3.861 9.879c8.147 18.602 12.007 39.232 11.161 59.66-.171 4.139 3.045 7.632 7.184 7.804z"/><path d="m267.064 54.679c51.811-2.145 102.491 17.575 139.026 54.108 36.534 36.534 56.257 87.206 54.109 139.026-.172 4.139 3.044 7.632 7.183 7.804.105.004.211.006.316.006 3.998 0 7.32-3.157 7.487-7.189 2.321-55.998-18.998-110.763-58.489-150.253-39.491-39.491-94.257-60.802-150.254-58.49-4.139.171-7.355 3.666-7.183 7.805.172 4.139 3.685 7.354 7.805 7.183z"/><path d="m99.863 462.377h31.889c6.255 0 11.344-5.082 11.344-11.327v-30.326h30.932c6.254 0 11.342-5.082 11.342-11.328v-31.302c0-6.246-5.088-11.328-11.342-11.328h-30.932v-30.325c0-6.246-5.089-11.328-11.344-11.328h-31.889c-6.255 0-11.344 5.082-11.344 11.328v30.325h-30.93c-6.254 0-11.342 5.082-11.342 11.328v31.302c0 6.246 5.088 11.328 11.342 11.328h30.931v30.326c0 6.245 5.088 11.327 11.343 11.327zm-38.615-56.653v-23.956h34.772c4.143 0 7.5-3.358 7.5-7.5v-34.152h24.576v34.152c0 4.143 3.357 7.5 7.5 7.5h34.773v23.956h-34.773c-4.143 0-7.5 3.358-7.5 7.5v34.152h-24.576v-34.152c0-4.142-3.357-7.5-7.5-7.5z"/></svg>