<svg id="Layer_1" enable-background="new 0 0 512 512" height="512" viewBox="0 0 512 512" width="512" xmlns="http://www.w3.org/2000/svg"><g><path d="m351.054 475.62c4.126 0 7.469-3.344 7.469-7.469v-8.671c16.758-3.288 26.546-17.106 28.715-30.014 2.79-16.595-5.891-31.024-22.115-36.76-2.169-.767-4.387-1.571-6.6-2.408v-35.321c5.566 1.333 8.881 4.148 9.168 4.399 3.034 2.749 7.723 2.542 10.503-.473 2.797-3.032 2.607-7.758-.426-10.555-.425-.391-7.561-6.821-19.245-8.575v-7.214c0-4.125-3.344-7.469-7.469-7.469-4.126 0-7.469 3.344-7.469 7.469v7.787c-1.109.244-2.234.525-3.384.872-10.685 3.219-18.668 12.363-20.836 23.864-1.976 10.487 1.384 20.599 8.768 26.39 3.913 3.069 8.782 5.88 15.452 8.849v44.788c-5.771-.425-9.767-1.836-16.317-6.121-3.453-2.258-8.081-1.291-10.339 2.162s-1.291 8.082 2.162 10.34c9.549 6.247 16.072 8.109 24.494 8.583v8.077c0 4.126 3.344 7.47 7.469 7.47zm-13.701-95.902c-2.979-2.337-4.246-6.885-3.307-11.87.842-4.467 3.791-9.835 9.539-12.005v27.858c-2.345-1.272-4.467-2.598-6.232-3.983zm22.792 27.073c13.802 4.878 12.952 16.693 12.362 20.198-1.15 6.838-5.912 14.086-13.984 16.974v-37.753c.54.193 1.067.384 1.622.581z"/><path d="m451.206 363.985c-1.524-3.832-5.868-5.704-9.7-4.181-3.834 1.524-5.706 5.867-4.182 9.7 4.351 10.943 6.557 22.518 6.557 34.404 0 51.365-41.788 93.153-93.154 93.153s-93.154-41.788-93.154-93.153 41.788-93.154 93.154-93.154c25.869 0 49.909 10.355 67.692 29.159 2.835 2.997 7.563 3.128 10.559.295 2.997-2.835 3.129-7.562.295-10.559-11.598-12.263-25.49-21.429-40.763-27.106v-285.115c-.001-9.61-7.82-17.428-17.429-17.428h-16.37c-4.126 0-7.469 3.344-7.469 7.469s3.344 7.469 7.469 7.469h16.37c1.373 0 2.49 1.117 2.49 2.49v44.692h-145.257v-44.692c0-1.373 1.117-2.49 2.49-2.49h85.077c4.126 0 7.469-3.344 7.469-7.469s-3.343-7.469-7.469-7.469h-85.077c-9.61 0-17.428 7.818-17.428 17.428v169.114c-.815-.117-1.642-.199-2.49-.199h-140.276c-9.61 0-17.428 7.818-17.428 17.428v290.666c0 9.61 7.818 17.428 17.428 17.428h140.276c3.703 0 7.133-1.17 9.959-3.146 2.826 1.977 6.256 3.146 9.959 3.146 0 0 117.738.134 119.922.134 59.602 0 108.092-48.49 108.092-108.092.001-13.782-2.561-27.214-7.612-39.922zm-237.83-38.462v47.164h-145.256v-47.164zm14.938-121.751v-2.481h145.256v47.173h-145.256zm145.256-17.429h-145.256v-47.163h145.256zm-305.45 201.291h145.256v47.173h-145.256zm160.194 0h15.545c-.805 5.309-1.225 10.743-1.225 16.274 0 10.734 1.58 21.104 4.507 30.899h-18.828v-47.173zm18.921-14.938h-18.921v-47.173h48.061c-13.459 12.773-23.638 28.967-29.14 47.173zm103.492-76.88c-19.855 0-38.474 5.387-54.481 14.768h-67.931v-47.182h145.255v34.809c-7.412-1.579-15.055-2.395-22.843-2.395zm22.843-218.757v47.173h-145.256v-47.173zm-305.45 126.713c0-1.373 1.117-2.49 2.49-2.49h140.276c1.373 0 2.49 1.117 2.49 2.49v44.692h-24.185c-4.125 0-7.469 3.344-7.469 7.469s3.344 7.469 7.469 7.469h24.185v47.173h-145.256v-47.173h82.359c4.125 0 7.469-3.344 7.469-7.469s-3.344-7.469-7.469-7.469h-82.359zm142.766 293.156h-140.276c-1.373 0-2.49-1.117-2.49-2.49v-44.692h145.256v44.692c0 1.373-1.117 2.49-2.49 2.49zm19.918 0c-1.373 0-2.49-1.117-2.49-2.49v-44.692h24.536c9.257 19.686 24.279 36.142 42.881 47.182z"/></g></svg>